<svg width="20" height="20" viewBox="0 0 20 20" fill="none" xmlns="http://www.w3.org/2000/svg">
<path fill-rule="evenodd" clip-rule="evenodd" d="M14.0681 0C14.2424 1.16786 13.7638 2.31074 13.1328 3.11986C12.457 3.98727 11.2929 4.65864 10.1686 4.62341C9.96364 3.50551 10.4909 2.35559 11.1296 1.58043C11.8336 0.725831 13.038 0.070469 14.0681 0ZM17.2707 17.2118C17.8524 16.3278 18.0683 15.8819 18.5199 14.8812C15.2412 13.6416 14.714 9.00797 17.9594 7.22895C16.9683 5.99446 15.5782 5.28016 14.2662 5.28016C13.319 5.28016 12.6702 5.52558 12.0806 5.74862C11.5895 5.9344 11.1395 6.10465 10.5922 6.10465C10.0008 6.10465 9.47694 5.9179 8.9282 5.7223C8.32484 5.50722 7.69145 5.28144 6.90537 5.28144C5.43065 5.28144 3.86239 6.1764 2.86814 7.7075C1.46965 9.86065 1.70668 13.912 3.9745 17.3637C4.78554 18.5988 5.8682 19.987 7.28527 19.9999C7.87206 20.0055 8.26272 19.8315 8.68565 19.6431C9.17002 19.4273 9.69671 19.1927 10.6088 19.1875C11.5266 19.1824 12.0447 19.4196 12.5229 19.6384C12.9348 19.827 13.3171 20.002 13.8997 19.9967C15.3168 19.9838 16.4603 18.4463 17.2707 17.2118Z" fill="#292929"/>
</svg>
